<mxfile host="app.diagrams.net" modified="2024-04-21T10:11:28.423Z" agent="Mozilla/5.0 (Windows NT 10.0; Win64; x64) AppleWebKit/537.36 (KHTML, like Gecko) Chrome/123.0.0.0 Safari/537.36" etag="_zh0gckjoauaPLSq4rRs" version="24.2.3" type="github">
  <diagram name="第 1 页" id="BvfWt2eRAFPN4007Cygg">
    <mxGraphModel dx="1050" dy="522" grid="1" gridSize="10" guides="1" tooltips="1" connect="1" arrows="1" fold="1" page="1" pageScale="1" pageWidth="827" pageHeight="1169" math="0" shadow="0">
      <root>
        <mxCell id="0" />
        <mxCell id="1" parent="0" />
        <mxCell id="bTiR-89tCNRCRYvhyB9D-3" value="开始" style="verticalLabelPosition=bottom;verticalAlign=top;html=1;shape=offPageConnector;rounded=0;size=0.5;" vertex="1" parent="1">
          <mxGeometry x="200" y="130" width="60" height="60" as="geometry" />
        </mxCell>
        <mxCell id="bTiR-89tCNRCRYvhyB9D-10" style="edgeStyle=orthogonalEdgeStyle;rounded=0;orthogonalLoop=1;jettySize=auto;html=1;entryX=0.5;entryY=0;entryDx=0;entryDy=0;" edge="1" parent="1" source="bTiR-89tCNRCRYvhyB9D-5" target="bTiR-89tCNRCRYvhyB9D-6">
          <mxGeometry relative="1" as="geometry" />
        </mxCell>
        <mxCell id="bTiR-89tCNRCRYvhyB9D-5" value="指定题型数量" style="html=1;strokeWidth=2;shape=manualInput;whiteSpace=wrap;rounded=1;size=26;arcSize=11;" vertex="1" parent="1">
          <mxGeometry x="180" y="240" width="100" height="60" as="geometry" />
        </mxCell>
        <mxCell id="bTiR-89tCNRCRYvhyB9D-11" style="edgeStyle=orthogonalEdgeStyle;rounded=0;orthogonalLoop=1;jettySize=auto;html=1;exitX=0.5;exitY=1;exitDx=0;exitDy=0;entryX=0.5;entryY=0;entryDx=0;entryDy=0;" edge="1" parent="1" source="bTiR-89tCNRCRYvhyB9D-6" target="bTiR-89tCNRCRYvhyB9D-7">
          <mxGeometry relative="1" as="geometry" />
        </mxCell>
        <mxCell id="bTiR-89tCNRCRYvhyB9D-6" value="随机抽取" style="rounded=1;whiteSpace=wrap;html=1;absoluteArcSize=1;arcSize=14;strokeWidth=2;" vertex="1" parent="1">
          <mxGeometry x="180" y="340" width="100" height="100" as="geometry" />
        </mxCell>
        <mxCell id="bTiR-89tCNRCRYvhyB9D-7" value="合并题目组卷" style="rounded=1;whiteSpace=wrap;html=1;absoluteArcSize=1;arcSize=14;strokeWidth=2;" vertex="1" parent="1">
          <mxGeometry x="180" y="470" width="100" height="100" as="geometry" />
        </mxCell>
        <mxCell id="bTiR-89tCNRCRYvhyB9D-8" value="渲染前端页面" style="strokeWidth=2;html=1;shape=mxgraph.flowchart.display;whiteSpace=wrap;" vertex="1" parent="1">
          <mxGeometry x="180" y="620" width="100" height="60" as="geometry" />
        </mxCell>
        <mxCell id="bTiR-89tCNRCRYvhyB9D-9" style="edgeStyle=orthogonalEdgeStyle;rounded=0;orthogonalLoop=1;jettySize=auto;html=1;entryX=0.508;entryY=0.193;entryDx=0;entryDy=0;entryPerimeter=0;" edge="1" parent="1" source="bTiR-89tCNRCRYvhyB9D-3" target="bTiR-89tCNRCRYvhyB9D-5">
          <mxGeometry relative="1" as="geometry" />
        </mxCell>
        <mxCell id="bTiR-89tCNRCRYvhyB9D-12" style="edgeStyle=orthogonalEdgeStyle;rounded=0;orthogonalLoop=1;jettySize=auto;html=1;exitX=0.5;exitY=1;exitDx=0;exitDy=0;entryX=0.5;entryY=0;entryDx=0;entryDy=0;entryPerimeter=0;" edge="1" parent="1" source="bTiR-89tCNRCRYvhyB9D-7" target="bTiR-89tCNRCRYvhyB9D-8">
          <mxGeometry relative="1" as="geometry" />
        </mxCell>
      </root>
    </mxGraphModel>
  </diagram>
</mxfile>
